<?xml version="1.0" standalone="no"?><!DOCTYPE svg PUBLIC "-//W3C//DTD SVG 1.1//EN" "http://www.w3.org/Graphics/SVG/1.1/DTD/svg11.dtd"><svg t="1727510818463" class="icon" viewBox="0 0 1024 1024" version="1.1" xmlns="http://www.w3.org/2000/svg" p-id="1541" xmlns:xlink="http://www.w3.org/1999/xlink" width="200" height="200"><path d="M804.571429 0c80.457143 0 146.285714 65.828571 146.285714 146.285714v585.142857l-292.571429 292.571429H219.428571c-80.457143 0-146.285714-65.828571-146.285714-146.285714V146.285714c0-80.457143 65.828571-146.285714 146.285714-146.285714h585.142858z" fill="#7895FF" p-id="1542"></path><path d="M731.428571 731.428571h219.428572l-292.571429 292.571429v-219.428571c0-43.885714 29.257143-73.142857 73.142857-73.142858z" p-id="1543"></path><path d="M731.428571 731.428571h219.428572l-292.571429 292.571429v-219.428571c0-43.885714 29.257143-73.142857 73.142857-73.142858z" fill="#C1CCF1" p-id="1544"></path><path d="M731.428571 299.885714H299.885714c-21.942857 0-43.885714-21.942857-43.885714-43.885714s21.942857-43.885714 43.885714-43.885714H731.428571c21.942857 0 43.885714 21.942857 43.885715 43.885714s-21.942857 43.885714-43.885715 43.885714zM731.428571 519.314286H299.885714c-21.942857 0-43.885714-21.942857-43.885714-43.885715s21.942857-43.885714 43.885714-43.885714H731.428571c21.942857 0 43.885714 21.942857 43.885715 43.885714s-21.942857 43.885714-43.885715 43.885715zM533.942857 738.742857H299.885714c-21.942857 0-43.885714-21.942857-43.885714-43.885714s21.942857-43.885714 43.885714-43.885714h234.057143c21.942857 0 43.885714 21.942857 43.885714 43.885714s-21.942857 43.885714-43.885714 43.885714z" fill="#FFCA4A" p-id="1545"></path></svg>